<mxfile host="app.diagrams.net" modified="2022-06-13T03:13:25.887Z" agent="5.0 (Windows NT 10.0; Win64; x64) AppleWebKit/537.36 (KHTML, like Gecko) Chrome/102.0.0.0 Safari/537.36" etag="4GWIeLtQewK4K1H7_NbC" version="19.0.3" type="github" pages="2">
  <diagram id="jYwhAeuAGMY-pxgTvX-t" name="Page-1">
    <mxGraphModel dx="1641" dy="1023" grid="1" gridSize="10" guides="1" tooltips="1" connect="1" arrows="1" fold="1" page="1" pageScale="1" pageWidth="827" pageHeight="1169" math="0" shadow="0">
      <root>
        <mxCell id="0" />
        <mxCell id="1" parent="0" />
        <mxCell id="bFiEoFBfs1S9iY9kU8S4-1" value="&lt;font style=&quot;font-size: 24px;&quot;&gt;開始&lt;/font&gt;" style="strokeWidth=2;html=1;shape=mxgraph.flowchart.start_1;whiteSpace=wrap;" parent="1" vertex="1">
          <mxGeometry x="299.38" y="160" width="201.25" height="70" as="geometry" />
        </mxCell>
        <mxCell id="bFiEoFBfs1S9iY9kU8S4-2" value="" style="verticalLabelPosition=bottom;verticalAlign=top;html=1;strokeWidth=2;shape=mxgraph.arrows2.arrow;dy=1;dx=46;notch=0;fontSize=24;rotation=90;" parent="1" vertex="1">
          <mxGeometry x="355.01" y="260" width="90" height="40" as="geometry" />
        </mxCell>
        <mxCell id="bFiEoFBfs1S9iY9kU8S4-3" value="執行&amp;nbsp;videoclip.py 分割影片成圖片" style="rounded=1;whiteSpace=wrap;html=1;absoluteArcSize=1;arcSize=14;strokeWidth=2;fontSize=24;" parent="1" vertex="1">
          <mxGeometry x="221" y="330" width="386" height="40" as="geometry" />
        </mxCell>
        <mxCell id="bFiEoFBfs1S9iY9kU8S4-4" value="" style="verticalLabelPosition=bottom;verticalAlign=top;html=1;strokeWidth=2;shape=mxgraph.arrows2.arrow;dy=1;dx=46;notch=0;fontSize=24;rotation=90;" parent="1" vertex="1">
          <mxGeometry x="355.01" y="400" width="90" height="40" as="geometry" />
        </mxCell>
        <mxCell id="bFiEoFBfs1S9iY9kU8S4-5" value="分割完成的圖片做 labeling" style="rounded=1;whiteSpace=wrap;html=1;absoluteArcSize=1;arcSize=14;strokeWidth=2;fontSize=24;" parent="1" vertex="1">
          <mxGeometry x="264" y="470" width="300" height="50" as="geometry" />
        </mxCell>
        <mxCell id="bFiEoFBfs1S9iY9kU8S4-6" value="" style="verticalLabelPosition=bottom;verticalAlign=top;html=1;strokeWidth=2;shape=mxgraph.arrows2.arrow;dy=1;dx=46;notch=0;fontSize=24;rotation=90;" parent="1" vertex="1">
          <mxGeometry x="355.01" y="550" width="90" height="40" as="geometry" />
        </mxCell>
        <mxCell id="bFiEoFBfs1S9iY9kU8S4-7" value="labeling 後的圖片用 label_video.py 對應 class.txt 的類別將有 label 的圖片合成" style="rounded=1;whiteSpace=wrap;html=1;absoluteArcSize=1;arcSize=14;strokeWidth=2;fontSize=24;" parent="1" vertex="1">
          <mxGeometry x="221" y="620" width="400" height="90" as="geometry" />
        </mxCell>
        <mxCell id="bFiEoFBfs1S9iY9kU8S4-8" value="" style="verticalLabelPosition=bottom;verticalAlign=top;html=1;strokeWidth=2;shape=mxgraph.arrows2.arrow;dy=1;dx=46;notch=0;fontSize=24;rotation=90;" parent="1" vertex="1">
          <mxGeometry x="355.01" y="740" width="90" height="40" as="geometry" />
        </mxCell>
        <mxCell id="bFiEoFBfs1S9iY9kU8S4-9" value="labeling 後的圖片用 label_video.py 對應 class.txt 的類別將有 label 的圖片合成" style="rounded=1;whiteSpace=wrap;html=1;absoluteArcSize=1;arcSize=14;strokeWidth=2;fontSize=24;" parent="1" vertex="1">
          <mxGeometry x="221" y="810" width="400" height="90" as="geometry" />
        </mxCell>
        <mxCell id="bFiEoFBfs1S9iY9kU8S4-11" value="獲得輸出 output.mp4" style="strokeWidth=2;html=1;shape=mxgraph.flowchart.terminator;whiteSpace=wrap;fontSize=24;" parent="1" vertex="1">
          <mxGeometry x="290" y="1000" width="240.01" height="70" as="geometry" />
        </mxCell>
        <mxCell id="bFiEoFBfs1S9iY9kU8S4-12" value="" style="verticalLabelPosition=bottom;verticalAlign=top;html=1;strokeWidth=2;shape=mxgraph.arrows2.arrow;dy=1;dx=46;notch=0;fontSize=24;rotation=90;" parent="1" vertex="1">
          <mxGeometry x="355.01" y="930" width="90" height="40" as="geometry" />
        </mxCell>
      </root>
    </mxGraphModel>
  </diagram>
  <diagram id="_oqYqDvHM7D5TH-34avO" name="project3">
    <mxGraphModel dx="1149" dy="716" grid="1" gridSize="10" guides="1" tooltips="1" connect="1" arrows="1" fold="1" page="1" pageScale="1" pageWidth="827" pageHeight="1169" math="0" shadow="0">
      <root>
        <mxCell id="0" />
        <mxCell id="1" parent="0" />
        <mxCell id="sWO-5NM_sPzu4EzaYKBV-1" value="&lt;font style=&quot;font-size: 24px;&quot;&gt;開始&lt;/font&gt;" style="strokeWidth=2;html=1;shape=mxgraph.flowchart.start_1;whiteSpace=wrap;" vertex="1" parent="1">
          <mxGeometry x="308.38" y="10" width="201.25" height="70" as="geometry" />
        </mxCell>
        <mxCell id="sWO-5NM_sPzu4EzaYKBV-2" value="" style="verticalLabelPosition=bottom;verticalAlign=top;html=1;strokeWidth=2;shape=mxgraph.arrows2.arrow;dy=1;dx=46;notch=0;fontSize=24;rotation=90;" vertex="1" parent="1">
          <mxGeometry x="364.01" y="110" width="90" height="40" as="geometry" />
        </mxCell>
        <mxCell id="sWO-5NM_sPzu4EzaYKBV-3" value="將 project2 的權重轉換成 Tensorflow model" style="rounded=1;whiteSpace=wrap;html=1;absoluteArcSize=1;arcSize=14;strokeWidth=2;fontSize=24;" vertex="1" parent="1">
          <mxGeometry x="154.01" y="180" width="510" height="40" as="geometry" />
        </mxCell>
        <mxCell id="sWO-5NM_sPzu4EzaYKBV-4" value="" style="verticalLabelPosition=bottom;verticalAlign=top;html=1;strokeWidth=2;shape=mxgraph.arrows2.arrow;dy=1;dx=46;notch=0;fontSize=24;rotation=90;" vertex="1" parent="1">
          <mxGeometry x="364.01" y="250" width="90" height="40" as="geometry" />
        </mxCell>
        <mxCell id="sWO-5NM_sPzu4EzaYKBV-5" value="用 YOLOv4 跑 DeepSort" style="rounded=1;whiteSpace=wrap;html=1;absoluteArcSize=1;arcSize=14;strokeWidth=2;fontSize=24;" vertex="1" parent="1">
          <mxGeometry x="273" y="320" width="300" height="50" as="geometry" />
        </mxCell>
        <mxCell id="sWO-5NM_sPzu4EzaYKBV-6" value="" style="verticalLabelPosition=bottom;verticalAlign=top;html=1;strokeWidth=2;shape=mxgraph.arrows2.arrow;dy=1;dx=46;notch=0;fontSize=24;rotation=90;" vertex="1" parent="1">
          <mxGeometry x="364.01" y="400" width="90" height="40" as="geometry" />
        </mxCell>
        <mxCell id="sWO-5NM_sPzu4EzaYKBV-10" value="獲得輸出 output.mp4" style="strokeWidth=2;html=1;shape=mxgraph.flowchart.terminator;whiteSpace=wrap;fontSize=24;" vertex="1" parent="1">
          <mxGeometry x="289" y="470" width="240.01" height="70" as="geometry" />
        </mxCell>
      </root>
    </mxGraphModel>
  </diagram>
</mxfile>
